{"glyphs":{" ":{"ha":694,"x_min":0,"x_max":0,"o":""},"@":{"ha":6569,"x_min":46,"x_max":6511,"o":"m 136 14 q 205 -2 168 -1 q 275 -3 242 -3 q 307 -1 286 -3 q 331 0 328 0 l 344 14 l 372 576 l 664 139 l 715 88 l 1067 639 l 1081 639 l 1081 167 q 1070 152 1081 163 q 1053 139 1060 142 q 1031 132 1046 136 q 997 123 1015 128 q 963 115 979 118 q 942 111 947 111 l 956 97 q 965 97 957 97 q 983 96 974 96 q 1005 95 994 96 q 1022 94 1015 94 q 1047 95 1031 94 q 1078 96 1063 96 q 1107 97 1094 96 q 1122 97 1119 97 q 1152 103 1133 99 q 1171 111 1171 108 l 1171 653 l 1869 653 q 1872 646 1869 650 q 1872 639 1874 642 l 1844 597 l 1747 417 q 1717 367 1739 403 q 1672 292 1696 332 q 1625 216 1647 251 q 1594 167 1603 181 q 1550 138 1575 147 q 1497 125 1525 128 l 1497 111 l 1761 111 l 1789 125 q 1729 147 1756 132 q 1703 199 1703 163 q 1706 229 1703 208 q 1717 269 1710 250 q 1735 304 1725 289 q 1761 319 1746 319 l 2094 319 q 2123 302 2110 319 q 2146 262 2136 285 q 2161 215 2156 239 q 2167 179 2167 192 q 2159 153 2167 163 q 2139 138 2151 143 q 2111 130 2126 132 q 2081 125 2096 128 l 2136 104 l 3025 104 q 2986 79 3010 86 q 2942 69 2963 72 l 2942 56 l 3157 56 l 3157 146 l 3400 146 l 3400 167 q 3320 186 3347 172 q 3281 223 3293 200 q 3268 280 3269 246 q 3267 361 3267 314 l 3990 361 l 3990 111 q 4008 102 3990 106 q 4049 97 4026 99 q 4089 96 4071 96 q 4111 96 4108 96 q 4133 97 4118 96 q 4150 97 4149 97 l 4164 111 q 4137 121 4156 117 q 4099 131 4118 125 q 4067 144 4081 136 q 4053 167 4053 151 l 4053 399 q 4074 401 4065 399 q 4090 403 4083 403 q 4105 400 4097 403 q 4122 389 4113 397 l 4428 111 q 4442 103 4431 108 q 4456 97 4453 99 q 4479 93 4463 96 q 4513 88 4496 90 q 4546 85 4531 86 q 4567 83 4561 83 q 4597 83 4569 83 q 4664 83 4626 83 q 4739 82 4701 82 q 4800 82 4776 82 q 5003 82 4901 82 q 5206 97 5106 82 q 5206 101 5206 99 q 5207 104 5207 103 q 5188 126 5207 122 q 5144 137 5168 131 q 5100 160 5119 143 q 5081 222 5081 178 l 5081 722 q 5097 760 5081 746 q 5135 782 5113 774 q 5181 795 5157 790 q 5219 806 5204 800 q 5243 806 5226 806 q 5281 806 5261 806 q 5319 807 5301 807 q 5344 807 5338 807 q 5403 808 5369 807 q 5472 806 5438 810 q 5540 794 5507 803 q 5594 764 5572 785 l 5817 556 l 5817 535 l 5761 535 q 5778 508 5765 525 q 5807 474 5792 492 q 5834 442 5822 457 q 5846 424 5846 428 q 5845 419 5846 422 q 5844 417 5844 417 l 5581 153 q 5554 137 5575 147 q 5508 115 5533 126 q 5460 95 5483 104 q 5428 83 5438 86 l 5428 69 l 5775 69 l 5775 83 q 5747 86 5764 85 q 5715 92 5731 88 q 5688 105 5699 96 q 5676 131 5676 114 q 5682 164 5676 153 q 5706 194 5688 175 q 5755 246 5725 215 q 5814 305 5785 276 q 5864 354 5843 333 q 5886 375 5885 375 l 5900 375 l 6136 153 q 6142 141 6138 151 q 6150 125 6147 131 q 6151 122 6150 125 q 6151 117 6151 119 q 6151 113 6151 115 q 6150 111 6150 111 q 6128 99 6143 104 q 6098 91 6114 94 q 6069 85 6082 88 q 6053 83 6056 83 l 6067 69 l 6483 69 l 6497 83 q 6475 92 6493 85 q 6435 108 6457 99 q 6395 126 6414 117 q 6372 139 6376 135 l 6011 486 q 6040 529 6040 501 q 6040 537 6040 532 q 6039 542 6039 542 l 5844 736 q 5838 749 5843 739 q 5831 764 5832 758 q 5830 767 5831 764 q 5829 772 5829 769 q 5842 789 5829 785 q 5873 796 5856 793 q 5906 803 5890 799 q 5928 819 5922 807 l 4983 819 l 4789 806 q 4815 785 4794 789 q 4857 776 4835 781 q 4897 762 4879 772 q 4914 722 4914 751 l 4914 194 q 4892 149 4914 164 q 4841 129 4871 135 q 4781 124 4811 124 q 4733 124 4750 124 q 4654 126 4694 124 q 4581 153 4614 129 q 4522 202 4564 167 q 4434 278 4481 238 q 4347 353 4388 318 q 4289 403 4306 389 q 4281 410 4286 406 q 4275 417 4275 415 q 4274 419 4275 417 q 4274 424 4274 422 q 4274 427 4274 425 q 4275 431 4275 429 l 4358 458 q 4376 466 4365 461 q 4386 472 4386 471 l 4386 764 q 4378 766 4386 764 q 4360 770 4371 768 q 4337 774 4349 772 q 4317 778 4325 776 q 4291 781 4310 779 q 4250 785 4272 783 q 4208 790 4228 788 q 4178 792 4188 792 l 4157 792 l 4136 792 q 4095 788 4119 790 q 4047 784 4071 786 q 4007 780 4024 782 q 3990 778 3990 778 l 3990 403 l 3261 403 l 3261 778 l 3483 778 q 3524 765 3510 778 q 3547 734 3538 751 q 3567 698 3557 717 q 3594 667 3576 679 q 3606 674 3603 668 q 3610 688 3608 681 q 3610 703 3611 696 q 3610 714 3610 710 q 3609 738 3610 721 q 3607 774 3608 756 q 3602 806 3606 792 q 3594 819 3599 819 l 3108 819 l 3094 799 l 2700 799 q 2701 769 2700 790 q 2702 726 2701 749 q 2704 682 2703 703 q 2706 653 2706 661 q 2711 639 2706 650 q 2719 625 2717 628 q 2722 624 2719 625 q 2726 624 2725 624 q 2740 633 2735 624 q 2750 656 2746 643 q 2756 680 2754 668 q 2761 694 2758 692 q 2799 730 2775 718 q 2850 747 2822 742 q 2906 751 2878 751 q 2956 751 2933 751 q 2978 751 2964 751 q 3005 751 2992 751 q 3028 750 3018 750 q 3039 750 3038 750 q 3065 744 3049 749 q 3081 736 3081 739 l 3081 139 l 2456 139 q 2372 167 2408 139 q 2306 237 2335 196 q 2256 323 2278 278 q 2219 403 2235 368 q 2241 409 2225 404 q 2261 417 2257 414 q 2271 424 2265 419 q 2275 431 2276 429 l 2136 694 l 2122 708 q 2104 710 2119 708 q 2082 711 2089 711 q 2063 711 2074 711 q 2039 710 2051 711 q 2015 706 2026 710 q 1997 694 2004 703 l 1178 694 q 1174 736 1175 719 q 1166 762 1172 753 q 1147 775 1160 771 q 1113 779 1135 779 q 1088 778 1097 779 q 1071 774 1078 778 q 1056 761 1064 769 q 1039 736 1049 753 l 747 285 l 442 750 q 435 758 440 753 q 428 764 431 763 q 410 781 422 768 q 383 809 397 794 q 358 835 369 824 q 344 847 347 847 l 46 847 q 72 822 46 825 q 130 818 99 819 q 188 810 161 817 q 214 772 214 803 q 199 774 210 772 q 175 776 188 775 q 151 777 163 776 q 136 778 140 778 q 128 772 133 778 q 122 764 122 767 q 141 739 128 744 q 169 733 154 733 q 200 732 185 732 q 231 724 217 732 q 253 697 244 717 q 261 639 261 678 l 261 97 q 245 62 261 76 q 208 38 229 47 q 167 22 188 28 q 136 14 146 15 m 1789 389 l 1914 611 q 1916 612 1914 611 q 1919 613 1918 613 q 1925 612 1922 613 q 1928 611 1928 611 q 1942 597 1932 608 q 1956 583 1953 586 q 1988 529 1968 563 q 2024 465 2007 496 q 2054 412 2042 435 q 2067 389 2067 389 l 2053 375 l 1803 375 l 1789 389 m 4038 642 q 4040 689 4038 668 q 4050 724 4042 710 q 4075 744 4058 738 q 4121 751 4092 751 q 4198 744 4163 751 q 4260 719 4233 736 q 4303 672 4288 701 q 4318 597 4318 642 q 4303 526 4318 553 q 4263 483 4289 499 q 4203 463 4238 468 q 4129 457 4168 457 q 4114 457 4125 457 q 4091 458 4103 457 q 4068 458 4079 458 q 4053 458 4057 458 q 4045 510 4049 488 q 4040 553 4042 532 q 4038 594 4039 574 q 4038 642 4038 615 m 6108 542 l 6108 525 q 6138 528 6124 525 q 6164 542 6153 532 q 6199 578 6174 551 q 6253 633 6225 604 q 6308 687 6282 661 q 6344 722 6333 713 q 6380 746 6353 731 q 6435 776 6407 761 q 6487 804 6464 792 q 6511 819 6510 817 l 6497 833 q 6477 834 6496 833 q 6447 835 6458 835 q 6308 831 6372 835 q 6164 819 6243 826 q 6189 797 6172 800 q 6222 791 6206 793 q 6251 781 6239 789 q 6264 747 6264 774 q 6263 733 6264 743 q 6261 722 6263 724 l 6108 542 m 2275 1056 l 2275 951 q 2397 951 2318 951 q 2581 952 2478 951 q 2803 953 2683 953 q 3045 953 2922 953 q 3288 955 3168 954 q 3511 956 3408 956 q 3694 958 3614 957 q 3817 958 3774 958 q 3883 960 3838 958 q 3984 963 3928 961 q 4102 967 4040 965 q 4220 972 4164 969 q 4321 976 4276 974 q 4386 979 4365 978 l 4067 979 q 4060 988 4065 979 q 4053 1000 4056 996 q 4053 1007 4051 1003 q 4056 1014 4056 1011 l 4081 1014 l 4081 1042 l 4061 1042 q 4058 1056 4061 1049 q 4053 1070 4054 1064 q 4057 1081 4051 1076 q 4081 1083 4063 1085 q 4070 1084 4078 1083 q 4060 1085 4063 1085 q 4031 1076 4040 1085 q 4017 1053 4021 1067 q 4013 1021 4013 1039 q 4011 986 4013 1004 q 3967 982 3999 985 q 3899 977 3935 979 q 3833 974 3864 975 q 3789 972 3801 972 q 3669 972 3740 971 q 3524 973 3597 972 q 3385 975 3451 974 q 3281 977 3319 976 q 3240 978 3243 978 l 3240 1069 l 3213 1069 l 3213 986 l 3157 986 q 3152 993 3157 989 q 3150 1000 3147 997 q 3170 1008 3154 1003 q 3192 1014 3186 1014 q 3160 1015 3168 1011 q 3150 1028 3153 1019 q 3146 1047 3147 1036 q 3136 1069 3144 1058 q 3124 1077 3132 1075 q 3115 1079 3115 1079 l 3115 972 l 2322 972 q 2321 988 2322 976 q 2319 1014 2319 1000 q 2317 1040 2318 1028 q 2317 1056 2317 1051 q 2322 1064 2317 1058 q 2331 1069 2328 1069 l 2261 1069 l 2275 1056 z "},"A":{"ha":1193,"x_min":46,"x_max":1143,"o":"m 46 14 l 46 0 l 393 0 l 393 14 q 352 22 374 18 q 311 35 331 26 q 279 58 292 43 q 267 97 267 72 q 272 133 267 110 q 286 180 276 157 q 309 219 296 203 q 338 236 322 236 l 713 236 q 735 214 721 236 q 764 163 750 192 q 788 107 778 135 q 797 68 797 79 q 785 37 797 47 q 756 22 774 26 q 719 17 739 18 q 685 14 700 15 l 685 0 l 1143 0 l 1143 14 q 1092 37 1118 18 q 1039 83 1065 56 q 988 142 1013 110 q 946 205 964 174 q 917 265 928 236 q 906 313 906 293 q 906 317 906 315 q 907 319 907 319 q 921 328 910 322 q 935 333 932 333 l 768 639 q 752 665 763 649 q 740 681 742 681 l 629 681 l 629 646 l 490 646 l 476 625 q 446 572 467 607 q 399 491 425 536 q 345 396 374 446 q 290 301 317 346 q 243 219 264 256 q 213 167 222 183 q 143 74 185 119 q 46 14 101 29 m 532 583 l 685 306 l 365 306 q 390 349 372 318 q 427 416 407 381 q 465 483 447 451 q 490 528 483 515 q 508 556 496 538 q 532 583 519 574 z "},"B":{"ha":797,"x_min":53,"x_max":750,"o":"m 53 889 l 53 -6 q 96 -6 67 -6 q 163 -5 126 -6 q 241 -3 200 -4 q 319 -2 282 -3 q 385 -1 356 -1 q 428 0 414 0 q 536 17 479 1 q 641 61 593 32 q 719 134 689 90 q 750 236 750 178 q 726 331 750 292 q 665 394 703 369 q 578 434 626 419 q 483 458 531 449 l 594 500 l 594 833 q 589 840 594 835 q 581 847 583 844 q 519 872 556 864 q 445 884 483 881 q 372 888 407 888 q 317 889 338 889 q 297 889 314 889 q 261 890 282 889 q 218 890 240 890 q 185 890 197 890 q 158 890 178 890 q 119 890 140 890 q 78 889 97 889 q 53 889 60 889 m 164 435 q 276 428 222 435 q 369 402 329 422 q 433 342 410 382 q 457 236 457 303 q 402 92 457 143 q 254 40 347 40 q 228 40 243 40 q 199 44 213 40 q 174 56 185 47 q 164 83 164 65 l 164 435 m 164 847 l 192 847 q 286 840 239 847 q 372 811 333 832 q 433 755 410 790 q 457 664 457 719 q 430 565 457 601 q 360 510 403 528 q 266 487 318 492 q 164 482 214 482 l 164 847 z "},"C":{"ha":1017,"x_min":53,"x_max":972,"o":"m 129 549 l 129 111 q 138 105 129 110 q 150 97 146 100 q 251 50 204 69 q 344 19 297 31 q 442 3 392 8 q 553 -1 492 -1 q 613 1 574 -1 q 698 8 651 3 q 793 24 744 14 q 881 52 842 35 q 947 94 921 69 q 972 153 972 119 q 971 167 972 156 q 969 181 969 178 q 956 174 967 179 q 942 167 944 169 q 931 159 939 165 q 914 145 924 153 q 896 132 904 138 q 886 125 888 126 q 756 64 819 86 q 615 42 693 42 q 426 85 496 42 q 322 199 357 128 q 276 362 286 271 q 261 549 265 453 l 192 549 q 235 674 204 618 q 311 768 265 729 q 416 828 357 807 q 546 849 475 849 q 656 830 606 849 q 746 784 706 811 q 817 724 786 757 q 870 665 847 692 q 907 619 893 638 q 928 600 921 600 l 928 911 q 901 901 911 911 q 881 878 890 890 q 858 856 871 867 q 824 846 846 846 q 739 855 781 846 q 655 875 697 864 q 570 895 613 886 q 483 904 528 904 q 304 885 397 904 q 136 819 211 865 q 113 805 126 814 q 85 787 99 796 q 63 771 72 778 q 53 764 53 764 l 53 549 l 129 549 z "},"D":{"ha":914,"x_min":46,"x_max":865,"o":"m 46 847 q 81 842 57 846 q 127 832 104 839 q 167 812 150 825 q 185 778 185 799 l 185 69 q 167 38 185 50 q 127 19 150 26 q 81 8 104 13 q 46 0 58 4 l 629 0 q 644 3 631 0 q 674 11 657 7 q 710 20 692 15 q 740 28 729 25 l 782 42 q 806 53 792 46 q 833 66 819 60 q 856 78 846 72 q 865 83 865 83 l 865 764 q 838 792 865 778 q 774 817 810 806 q 703 837 738 829 q 657 847 669 844 q 632 851 647 849 q 601 856 617 854 q 573 860 585 858 q 560 861 561 861 l 46 861 l 46 847 m 379 824 q 668 724 581 824 q 756 424 756 625 q 741 283 756 353 q 692 156 726 213 q 601 63 658 99 q 461 28 544 28 q 440 30 454 28 q 413 38 426 32 q 390 51 400 43 q 379 69 379 58 l 379 824 z "},"E":{"ha":1038,"x_min":43,"x_max":992,"o":"m 43 792 q 59 790 47 792 q 85 785 71 788 q 110 781 99 783 q 126 778 122 779 q 140 772 131 776 q 158 760 149 767 q 175 748 168 754 q 182 736 182 742 l 182 0 q 176 -6 182 -1 q 168 -14 171 -11 q 138 -28 156 -22 q 102 -40 121 -35 q 67 -50 83 -46 q 43 -56 51 -54 l 314 -56 l 314 7 l 946 7 q 960 40 951 7 q 975 118 968 74 q 987 205 982 163 q 992 267 992 247 q 958 245 978 267 q 915 194 938 224 q 867 138 892 165 q 821 97 843 110 q 689 51 758 61 q 549 40 619 40 q 492 42 518 40 q 447 53 467 44 q 417 83 428 63 q 404 139 406 103 q 405 193 404 154 q 406 276 406 232 q 408 359 407 319 q 410 414 410 399 q 497 402 461 414 q 560 367 533 390 q 605 307 586 343 q 640 222 624 271 l 668 222 l 668 667 l 640 667 q 608 567 624 604 q 568 510 592 529 q 506 486 544 492 q 404 481 467 481 l 404 814 q 457 815 419 814 q 537 817 494 817 q 616 819 579 818 q 668 819 653 819 q 748 801 714 817 q 808 758 782 785 q 855 697 835 732 q 890 625 875 663 l 918 625 l 918 875 l 314 875 l 314 813 l 43 813 l 43 792 z "},"F":{"ha":701,"x_min":46,"x_max":657,"o":"m 46 861 l 46 0 l 310 0 q 290 6 304 1 q 260 14 276 10 q 231 22 244 18 q 213 28 218 26 q 202 32 211 28 q 182 43 193 36 q 171 56 171 50 l 171 397 q 275 383 235 397 q 340 348 315 369 q 376 301 364 326 q 397 255 389 276 q 413 219 406 233 q 435 206 421 206 l 435 672 q 410 644 424 672 q 378 579 397 615 q 332 511 358 543 q 268 472 306 479 q 249 472 263 471 q 219 476 235 474 q 190 479 204 478 q 171 481 176 481 l 171 800 q 254 803 207 800 q 351 804 301 806 q 448 794 400 803 q 535 765 496 786 q 599 708 574 744 q 629 611 625 671 l 657 611 l 657 861 l 46 861 z "},"G":{"ha":949,"x_min":46,"x_max":907,"o":"m 471 890 q 418 885 456 890 q 333 872 381 881 q 235 851 286 864 q 142 823 185 839 q 73 789 100 807 q 46 750 46 771 l 46 125 q 64 97 46 111 q 110 70 82 83 q 170 44 138 57 q 234 23 203 32 q 290 8 265 14 q 324 0 314 1 q 358 0 333 0 q 410 -1 383 0 q 463 -1 438 -1 q 497 -1 488 -1 q 625 -2 556 -1 q 754 14 694 -3 q 763 20 757 15 q 768 28 768 25 l 768 361 l 518 361 l 518 347 q 539 344 519 347 q 581 335 558 340 q 624 322 604 329 q 643 306 643 314 l 643 56 q 627 49 643 54 q 601 42 611 44 q 578 38 593 40 q 548 33 564 35 q 519 29 532 31 q 504 28 507 28 q 351 61 413 28 q 253 151 290 94 q 199 279 215 207 q 183 431 183 351 q 205 624 183 543 q 276 755 226 704 q 405 829 325 806 q 601 853 485 853 l 601 875 q 580 883 601 878 q 546 889 558 888 q 535 889 544 889 q 515 890 526 889 q 490 890 503 890 q 471 890 478 890 m 611 835 q 632 790 611 810 q 681 755 653 771 q 737 725 708 739 q 782 694 765 711 q 804 667 789 688 q 835 623 819 646 q 863 580 850 600 q 879 556 876 560 l 907 556 l 907 856 q 877 845 889 856 q 856 823 865 835 q 835 801 846 811 q 806 790 824 790 q 756 797 781 790 q 708 813 732 804 q 660 828 683 821 q 611 835 636 835 z "},"H":{"ha":996,"x_min":38,"x_max":954,"o":"m 65 14 l 65 0 l 378 0 l 378 417 l 857 417 l 857 83 q 839 48 857 61 q 798 27 821 35 q 751 17 775 19 q 718 14 728 15 l 718 0 l 954 0 l 954 889 l 718 889 l 718 875 q 753 868 729 872 q 799 856 776 864 q 840 836 822 849 q 857 806 857 824 l 857 486 l 385 486 l 385 819 q 395 833 385 822 q 413 847 406 844 q 431 853 418 849 q 460 863 444 858 q 490 870 476 867 q 510 875 504 874 l 510 896 l 267 896 l 267 958 l 38 958 l 38 944 q 103 928 68 938 q 163 896 139 919 l 65 896 l 65 875 q 87 871 68 875 q 127 861 106 867 q 166 849 149 856 q 183 833 183 842 l 183 556 l 203 553 l 204 83 q 186 48 204 61 q 145 27 168 35 q 99 17 122 19 q 65 14 75 15 z "},"I":{"ha":486,"x_min":14,"x_max":472,"o":"m 14 14 l 14 0 l 472 0 l 472 14 q 456 16 468 14 q 431 20 444 18 q 405 24 417 22 q 389 28 393 26 q 376 33 385 29 q 357 44 367 38 q 340 57 347 50 q 333 69 333 64 l 333 806 q 353 838 333 826 q 397 853 372 849 q 444 860 422 858 q 472 861 467 861 l 472 878 q 14 861 243 878 l 14 847 q 59 846 35 849 q 104 835 83 843 q 139 809 125 826 q 153 764 153 792 l 153 111 q 140 61 153 79 q 108 34 128 43 q 64 22 89 25 q 14 14 39 18 z "},"J":{"ha":778,"x_min":46,"x_max":740,"o":"m 46 42 q 143 6 92 14 q 247 -1 194 -1 q 351 6 300 -1 q 449 42 403 14 q 458 124 449 101 q 483 155 468 147 q 517 165 499 163 q 553 184 536 167 q 583 244 569 201 q 601 375 597 286 q 604 440 603 396 q 607 538 606 483 q 610 653 608 592 q 613 768 611 714 q 615 866 614 822 q 615 931 615 910 q 639 956 622 946 q 676 973 656 967 q 714 982 696 979 q 740 986 732 985 l 740 1000 l 456 1000 l 456 910 l 171 910 l 171 889 q 206 884 181 888 q 257 871 231 881 q 303 846 283 861 q 324 806 324 831 l 324 139 q 319 110 324 126 q 305 78 314 93 q 283 52 296 63 q 254 42 271 42 l 46 42 z "},"K":{"ha":1210,"x_min":49,"x_max":1160,"o":"m 49 -15 l 49 -29 l 306 -29 l 306 33 l 493 33 l 493 54 q 469 58 485 54 q 437 69 453 61 q 408 87 421 76 q 396 110 396 97 l 396 429 q 407 442 396 440 q 425 444 418 444 q 433 444 428 444 q 438 443 438 443 l 701 165 q 725 135 719 146 q 731 101 731 124 q 718 76 731 82 q 690 67 706 69 q 663 58 675 64 q 650 33 650 51 l 896 33 l 938 -1 l 1160 -1 l 1160 13 q 1126 25 1144 18 q 1088 40 1107 32 q 1051 59 1068 49 q 1021 82 1033 69 l 576 540 l 590 554 q 615 572 593 557 q 669 608 636 586 q 742 658 701 631 q 824 713 783 686 q 902 763 865 739 q 965 804 939 788 q 999 818 974 810 q 1051 837 1024 826 q 1099 860 1078 847 q 1121 888 1121 872 l 710 888 q 726 863 710 868 q 762 853 742 857 q 798 842 782 850 q 814 810 814 835 q 802 768 814 782 q 757 735 790 754 q 699 696 740 724 q 612 638 658 668 q 524 579 565 607 q 465 540 482 551 q 431 524 451 531 q 396 513 411 517 l 396 860 q 412 885 396 878 q 447 896 428 892 q 483 906 467 900 q 499 929 499 913 l 306 929 l 306 867 l 49 867 l 49 846 q 83 839 60 843 q 130 827 107 835 q 170 807 153 819 q 188 776 188 794 l 188 40 q 181 28 188 35 q 164 15 174 21 q 145 4 154 8 q 132 -1 136 0 q 116 -5 128 -3 q 90 -9 104 -7 q 65 -13 76 -11 q 49 -15 53 -15 z "},"L":{"ha":861,"x_min":14,"x_max":847,"o":"m 14 14 l 14 -1 q 60 -1 26 -1 q 132 -1 94 -1 q 203 0 169 0 q 250 0 236 0 q 319 1 272 0 q 426 4 367 3 q 549 7 485 6 q 673 10 614 8 q 778 12 732 11 q 847 14 825 13 l 847 63 l 347 63 q 334 68 342 63 q 320 81 326 74 q 310 97 314 89 q 306 111 306 106 l 306 819 q 326 855 306 842 q 371 876 346 868 q 418 885 396 883 q 444 889 440 888 l 444 906 q 14 889 228 906 l 14 875 q 33 870 19 874 q 63 863 47 867 q 92 853 79 858 q 111 847 106 849 q 128 833 118 844 q 139 819 139 822 l 139 69 q 121 44 139 54 q 81 28 103 35 q 38 17 58 21 q 14 14 18 14 z "},"M":{"ha":1236,"x_min":49,"x_max":1188,"o":"m 49 -57 l 49 -71 l 257 -71 l 285 735 l 688 13 q 690 12 688 13 q 693 11 692 11 q 699 12 696 11 q 701 13 701 13 q 709 19 704 14 q 715 26 714 24 l 1090 721 l 1090 82 q 1083 69 1090 76 q 1067 56 1076 63 q 1048 46 1057 50 q 1035 40 1039 42 q 1019 37 1031 39 q 993 33 1007 35 q 967 28 979 31 q 951 26 956 26 l 951 13 l 1188 13 l 1188 818 l 1069 818 l 768 257 l 454 825 l 326 825 q 310 838 319 825 q 293 869 301 851 q 278 903 285 886 q 271 929 272 921 l 63 929 l 63 915 q 82 914 68 915 q 112 910 96 913 q 141 906 128 908 q 160 901 154 903 q 168 892 163 900 q 174 881 174 883 l 49 881 l 49 860 q 74 859 51 860 q 121 853 96 858 q 167 836 146 847 q 188 804 188 825 l 188 26 q 172 -10 188 4 q 133 -35 156 -25 q 86 -49 110 -44 q 49 -57 63 -54 z "},"N":{"ha":1099,"x_min":40,"x_max":1054,"o":"m 346 694 l 1040 0 l 1054 0 l 1054 903 l 860 903 l 860 889 q 910 876 885 885 q 955 851 935 867 q 987 815 975 836 q 999 764 999 793 l 999 375 l 471 910 l 339 910 l 339 972 l 40 972 l 40 958 q 60 956 46 958 q 90 952 74 954 q 119 948 106 950 q 138 944 132 946 q 151 944 138 944 q 180 940 164 943 q 208 930 196 938 q 221 910 221 922 l 106 910 q 106 901 106 910 q 110 889 107 893 q 124 875 114 879 q 144 869 133 871 q 165 865 156 867 q 179 861 175 864 q 199 845 188 856 q 222 824 211 835 q 241 803 233 813 q 249 792 249 794 l 249 125 q 234 81 249 97 q 199 53 219 64 q 153 38 178 43 q 110 28 129 32 l 110 14 l 343 21 l 346 694 z "},"O":{"ha":907,"x_min":44,"x_max":865,"o":"m 44 451 q 58 317 47 363 q 81 251 68 272 q 110 224 94 231 q 138 206 125 217 q 160 169 151 194 q 171 83 169 143 q 192 56 171 68 q 247 35 214 44 q 318 19 279 26 q 394 8 357 13 q 458 2 431 4 q 497 0 486 0 q 628 7 560 0 q 754 42 696 14 q 785 56 767 47 q 822 74 804 65 q 853 90 840 83 q 865 97 865 97 l 865 819 q 848 842 865 831 q 804 865 831 854 q 746 885 778 876 q 685 901 714 894 q 633 913 656 908 q 601 917 610 917 q 586 917 600 917 q 557 917 574 917 q 524 918 540 918 q 497 918 507 918 q 328 906 410 918 q 171 847 246 893 q 160 764 169 790 q 137 724 150 738 q 108 699 124 710 q 79 664 93 689 q 56 590 65 639 q 44 451 46 542 m 225 458 q 238 602 225 528 q 281 738 250 676 q 367 838 313 799 q 504 876 421 876 q 642 838 589 876 q 722 740 694 800 q 760 608 750 681 q 769 465 769 535 q 760 322 769 397 q 721 185 750 247 q 638 81 692 122 q 497 40 585 40 q 363 81 415 40 q 279 183 310 121 q 237 318 249 244 q 225 458 225 392 z "},"P":{"ha":582,"x_min":43,"x_max":543,"o":"m 43 903 l 43 0 l 293 0 l 293 14 q 242 24 267 18 q 197 42 217 31 q 166 74 178 54 q 154 125 154 94 l 154 403 q 242 405 193 404 q 341 409 290 406 q 441 421 392 413 q 529 444 490 429 q 538 451 532 446 q 543 458 543 456 l 543 861 q 538 868 543 864 q 529 875 532 872 q 456 898 496 892 q 373 906 415 904 q 290 906 331 907 q 217 904 250 904 q 182 904 207 904 q 130 903 157 904 q 78 903 103 903 q 43 903 53 903 m 154 861 q 169 861 158 861 q 192 862 181 861 q 215 863 204 863 q 231 863 226 863 q 391 815 335 863 q 447 660 447 768 q 425 548 447 589 q 363 486 403 507 q 270 459 324 465 q 154 453 217 453 l 154 861 z "},"Q":{"ha":986,"x_min":13,"x_max":972,"o":"m 13 476 q 24 363 13 403 q 56 291 35 322 q 105 227 76 260 q 167 136 133 194 q 170 124 168 133 q 174 101 172 114 q 177 78 175 89 q 181 67 179 68 q 217 40 194 47 q 263 30 239 33 q 310 20 288 26 q 347 -3 333 14 l 403 -72 q 487 -142 440 -115 q 585 -185 533 -169 q 691 -207 636 -201 q 799 -212 746 -212 q 825 -212 808 -212 q 860 -212 843 -212 q 889 -211 876 -211 q 903 -211 901 -211 q 923 -209 911 -211 q 946 -205 935 -207 q 965 -201 957 -203 q 972 -197 972 -199 l 972 -169 q 870 -161 915 -167 q 786 -141 825 -156 q 712 -101 747 -126 q 639 -31 676 -75 q 631 -17 636 -28 q 625 -3 625 -6 q 649 15 625 4 q 706 38 674 26 q 772 60 739 49 q 819 81 804 72 q 845 97 829 86 q 861 108 861 107 l 861 803 q 856 809 861 804 q 847 817 850 814 q 669 892 756 868 q 479 915 583 915 q 415 913 460 915 q 322 902 371 910 q 233 881 274 894 q 181 844 192 867 q 178 837 181 843 q 174 824 176 831 q 170 810 172 817 q 167 803 168 804 q 108 724 136 760 q 59 653 81 689 q 25 575 38 617 q 13 476 13 533 m 207 456 q 218 597 207 524 q 259 732 229 671 q 342 833 289 793 q 479 874 394 874 q 620 833 567 874 q 703 729 674 792 q 742 591 732 667 q 751 447 751 515 q 740 308 751 381 q 699 176 729 236 q 615 76 668 115 q 479 38 563 38 q 342 78 396 38 q 259 179 289 118 q 218 315 229 240 q 207 456 207 389 z "},"R":{"ha":969,"x_min":43,"x_max":918,"o":"m 43 861 l 43 0 l 279 0 l 279 14 q 237 19 261 15 q 191 33 213 24 q 155 57 169 42 q 140 97 140 72 l 140 389 l 321 389 l 696 0 l 918 0 l 918 14 q 871 28 892 18 q 832 55 850 39 q 798 89 814 71 q 765 125 782 107 l 515 403 q 531 415 519 411 q 555 422 543 419 q 576 430 567 425 q 585 444 585 435 l 585 833 q 574 840 585 836 q 557 847 564 844 q 538 851 550 849 q 512 856 525 854 q 488 860 499 858 q 474 861 476 861 l 43 861 m 140 833 q 165 834 146 833 q 189 835 183 835 q 298 828 246 835 q 390 801 350 822 q 453 742 429 781 q 476 639 476 703 q 447 524 476 564 q 369 465 417 483 q 260 443 321 446 q 140 440 200 440 l 140 833 z "},"S":{"ha":825,"x_min":39,"x_max":792,"o":"m 40 263 l 40 -61 q 69 -51 57 -61 q 95 -31 82 -42 q 124 -10 108 -19 q 160 0 139 0 q 214 -8 188 0 q 266 -25 240 -15 q 318 -42 292 -35 q 374 -50 344 -50 l 374 -15 q 267 16 315 -10 q 181 79 219 42 q 115 165 143 117 q 68 263 86 213 l 40 263 m 386 33 q 398 15 386 18 q 421 13 410 13 q 548 28 482 13 q 668 77 614 44 q 757 161 722 110 q 792 283 792 213 q 766 387 792 343 q 700 463 740 431 q 610 521 660 496 q 513 568 560 546 q 490 578 506 571 q 457 592 475 585 q 422 604 439 599 q 393 610 404 610 l 388 610 q 384 602 386 608 q 380 589 382 596 q 376 576 378 582 q 374 568 375 569 q 372 567 374 568 q 368 567 369 567 q 317 579 343 567 q 269 612 290 592 q 233 657 247 632 q 219 707 219 682 q 234 758 219 738 q 271 794 249 779 q 321 817 293 808 q 374 832 349 826 l 374 864 q 262 849 321 864 q 153 804 203 835 q 72 728 104 774 q 39 619 39 682 q 69 507 39 556 q 146 422 99 458 q 250 361 193 386 q 360 318 307 336 q 363 317 360 318 q 368 317 365 317 q 372 317 369 317 q 374 318 374 318 q 381 336 381 328 q 383 350 382 344 q 388 359 385 356 q 401 363 390 363 q 409 362 404 363 q 415 360 414 361 q 480 333 446 347 q 543 299 514 319 q 592 251 572 279 q 611 186 611 224 q 589 118 611 144 q 533 76 567 92 q 460 52 499 60 q 388 40 421 44 q 387 37 388 39 q 386 33 386 35 m 388 901 q 581 820 499 879 q 707 651 663 761 l 721 651 l 721 935 q 699 925 707 935 q 685 903 692 915 q 670 882 679 892 q 644 872 661 872 q 580 881 611 872 q 517 902 549 890 q 453 923 486 914 q 388 932 421 932 l 388 901 z "},"T":{"ha":999,"x_min":42,"x_max":958,"o":"m 263 -29 q 305 -24 281 -28 q 351 -12 329 -21 q 387 11 372 -4 q 401 53 401 26 l 403 725 q 292 722 344 725 q 198 703 240 719 q 123 651 156 688 q 69 549 90 615 l 42 549 l 42 778 l 458 778 l 472 813 l 958 813 l 958 588 q 925 605 939 588 q 899 646 911 622 q 876 693 888 669 q 847 729 864 717 q 791 757 819 749 q 733 767 763 765 q 674 768 704 769 q 611 767 643 767 l 610 94 q 617 81 610 88 q 633 69 624 75 q 652 58 643 63 q 665 53 661 54 q 681 49 669 51 q 707 45 693 47 q 733 41 721 43 q 749 39 744 39 l 749 18 l 464 18 l 464 -43 l 263 -43 l 263 -29 z "},"U":{"ha":1111,"x_min":53,"x_max":1067,"o":"m 53 861 q 88 858 74 860 q 115 854 103 857 q 138 847 126 851 q 164 833 149 842 q 176 825 168 831 q 185 819 185 819 l 185 264 q 202 188 185 233 q 248 101 219 143 q 313 30 276 60 q 386 0 349 0 l 574 0 l 574 42 q 686 72 625 53 q 799 123 747 90 q 886 203 851 156 q 921 319 921 250 l 921 861 q 941 895 921 882 q 987 916 961 908 q 1036 927 1013 924 q 1067 931 1060 931 l 1067 944 l 719 944 l 719 931 q 744 927 724 931 q 786 917 764 924 q 826 899 808 910 q 844 875 844 889 l 844 292 q 817 206 844 243 q 748 145 789 169 q 660 108 707 121 q 574 97 613 96 l 574 64 q 559 61 572 64 q 527 56 546 58 q 497 56 508 54 q 448 78 472 61 q 406 117 424 94 q 376 168 388 140 q 365 222 365 196 l 365 875 l 53 875 l 53 861 z "},"V":{"ha":1263,"x_min":39,"x_max":1226,"o":"m 39 889 q 46 875 39 882 q 84 854 67 861 q 116 839 101 847 q 144 817 131 831 q 171 778 157 803 l 574 14 q 585 1 581 3 q 601 -1 590 -1 q 617 1 613 -1 q 629 14 622 3 l 858 444 l 796 444 l 685 250 q 678 242 683 247 q 671 236 674 238 l 657 250 l 407 736 q 405 748 406 738 q 404 763 404 758 q 416 794 404 783 q 444 810 428 806 q 481 817 461 815 q 518 819 501 818 l 518 840 l 213 840 l 171 889 l 39 889 m 879 472 l 878 458 q 911 459 899 458 q 932 463 924 460 q 947 475 940 467 q 963 500 953 483 q 990 547 971 513 q 1032 618 1010 581 q 1074 689 1054 656 q 1101 736 1093 722 q 1158 788 1122 768 q 1226 819 1193 808 l 1226 833 l 879 833 l 879 819 q 917 813 896 817 q 959 801 939 810 q 993 779 979 793 q 1007 743 1007 765 q 1006 731 1007 739 q 1004 722 1004 724 l 879 472 z "},"W":{"ha":1604,"x_min":49,"x_max":1554,"o":"m 831 492 l 1090 -57 q 1101 -70 1096 -68 q 1118 -72 1107 -72 q 1134 -70 1128 -72 q 1146 -57 1140 -68 l 1479 665 q 1494 681 1482 672 q 1520 699 1507 689 q 1544 717 1533 708 q 1554 735 1554 726 l 1285 735 l 1285 721 q 1353 707 1322 721 q 1383 654 1383 693 q 1381 618 1383 631 q 1368 582 1379 606 q 1319 474 1349 539 q 1260 346 1289 408 q 1210 239 1231 283 q 1188 193 1189 194 l 1174 179 q 1149 231 1165 196 q 1113 309 1133 265 q 1069 401 1092 353 q 1026 494 1046 450 q 989 572 1006 538 q 965 624 972 607 q 958 644 963 628 q 951 665 953 660 l 951 674 q 964 698 951 689 q 993 713 976 707 q 1026 719 1010 718 q 1049 721 1042 721 l 1049 742 l 799 742 l 757 818 l 576 818 l 576 804 q 623 797 603 801 q 660 783 643 792 q 690 758 676 774 q 715 721 703 743 q 735 683 724 706 q 758 638 747 660 q 777 599 769 615 q 785 582 785 583 l 785 554 l 622 228 l 396 679 q 383 715 385 701 q 381 750 381 728 q 398 792 381 783 q 451 804 415 800 l 451 825 l 215 825 l 174 901 l 49 901 l 49 888 q 69 879 57 885 q 93 867 81 874 q 117 851 106 860 q 132 832 128 842 l 549 13 q 553 12 549 13 q 560 11 557 11 q 578 13 571 11 q 590 26 585 15 l 831 492 z "},"X":{"ha":1236,"x_min":49,"x_max":1188,"o":"m 49 14 l 49 0 l 465 0 l 465 14 q 434 19 457 15 q 387 28 411 22 q 344 47 363 35 q 326 76 326 58 l 326 83 q 333 98 328 88 q 340 111 339 108 l 563 333 q 584 313 568 329 q 604 292 600 297 q 638 252 615 279 q 685 197 661 225 q 730 144 710 168 q 757 111 750 119 q 769 91 767 100 q 772 69 772 82 q 758 42 772 50 q 726 30 743 35 q 695 19 710 25 q 681 0 681 14 l 1146 0 l 1146 14 q 1102 31 1121 22 q 1067 51 1083 40 q 1038 77 1051 63 q 1007 111 1024 92 q 972 151 996 124 q 919 215 949 179 q 856 290 889 250 q 792 365 822 329 q 737 429 761 400 q 701 472 713 458 q 684 495 694 479 q 674 514 674 511 q 678 522 674 515 q 687 535 682 528 q 696 548 692 542 q 701 556 700 554 q 702 558 701 556 q 703 563 703 561 q 702 567 703 564 q 701 569 701 569 l 521 792 q 520 797 521 792 q 519 804 519 801 q 531 830 519 821 q 558 842 542 839 q 590 847 574 846 q 618 847 607 847 l 618 861 l 153 861 q 163 844 153 850 q 185 835 172 839 q 210 828 197 832 q 229 819 222 825 q 349 696 292 767 q 451 563 406 625 l 396 563 l 396 542 l 521 389 q 415 275 467 332 q 306 167 363 218 q 187 76 250 117 q 49 14 124 36 m 910 785 l 910 778 q 876 717 900 749 q 826 658 853 686 q 772 607 799 631 q 729 569 746 583 q 747 567 733 568 q 764 567 760 567 q 796 569 785 567 q 816 577 807 571 q 836 595 825 583 q 868 625 847 607 q 907 660 879 635 q 965 715 935 686 q 1024 769 996 743 q 1063 806 1051 794 q 1122 835 1090 825 q 1188 847 1154 844 l 1188 861 l 799 861 l 799 847 q 831 843 811 846 q 867 834 850 840 q 897 816 885 828 q 910 785 910 804 z "},"Y":{"ha":1178,"x_min":46,"x_max":1136,"o":"m 254 14 l 254 0 l 754 0 l 754 14 q 726 15 749 14 q 679 22 704 17 q 635 38 654 26 q 615 69 615 49 l 615 361 l 796 625 q 782 626 793 625 q 768 628 771 628 q 706 601 732 628 q 659 540 681 575 q 617 470 638 506 q 574 417 597 435 q 528 458 550 433 q 487 513 506 483 q 455 572 468 542 q 435 632 442 603 l 504 632 q 480 681 496 656 q 448 733 464 707 q 419 785 432 760 q 407 833 407 810 q 419 854 407 846 q 449 867 432 863 q 483 874 467 872 q 504 875 499 875 l 504 889 l 46 889 l 46 875 q 89 867 68 878 q 128 842 110 857 q 160 808 146 826 q 185 778 175 790 q 208 747 194 767 q 235 706 222 726 q 258 671 249 686 q 268 653 268 656 l 268 632 l 199 632 l 379 333 l 379 56 q 369 41 379 51 q 351 28 358 31 q 333 24 346 26 q 303 19 319 21 q 274 15 288 17 q 254 14 260 14 m 908 813 q 894 765 908 785 q 864 726 881 744 q 833 688 847 707 q 819 643 819 668 q 881 647 858 629 q 926 699 904 665 q 978 774 949 732 q 1060 847 1007 815 q 1081 855 1068 851 q 1106 862 1093 858 q 1127 872 1118 865 q 1136 889 1136 878 l 810 889 l 810 875 q 841 869 824 872 q 873 859 858 865 q 898 842 888 853 q 908 813 908 831 z "},"Z":{"ha":1046,"x_min":43,"x_max":1003,"o":"m 167 49 l 139 0 l 958 0 q 972 38 964 0 q 986 126 979 75 q 998 229 993 178 q 1003 308 1003 281 q 978 290 992 308 q 946 243 964 271 q 905 182 928 215 q 853 121 882 149 q 789 74 825 93 q 708 56 753 56 l 319 56 q 388 146 342 85 q 491 283 433 207 q 612 444 549 360 q 733 606 675 529 q 836 743 790 682 q 903 833 882 804 q 917 857 907 839 q 931 882 928 875 l 822 882 q 820 890 822 882 q 819 903 818 899 q 826 917 821 906 q 833 931 831 928 l 153 931 q 149 905 153 931 q 141 844 146 879 q 132 771 136 808 q 125 708 128 733 q 124 693 125 706 q 124 678 124 681 q 167 708 144 678 q 217 776 189 739 q 280 844 244 814 q 361 875 315 875 l 664 875 l 43 49 l 167 49 z "},"":{"ha":0,"x_min":0,"x_max":0,"o":""},"":{"ha":694,"x_min":0,"x_max":0,"o":""}}}
